<?xml version="1.0" encoding="UTF-8"?>
<svg width="356px" height="72px" viewBox="0 0 356 72" version="1.1" xmlns="http://www.w3.org/2000/svg" xmlns:xlink="http://www.w3.org/1999/xlink">
    <g id="Artboard-Copy" stroke="none" stroke-width="1" fill="none" fill-rule="evenodd">
        <path d="M1.609375,70 L1.609375,0.328125 L15.4726562,0.328125 L15.4726562,21.7578125 L21.71875,28.4101562 L42.9453125,0.328125 L57.875,0.328125 L57.875,1.34375 L30.3515625,37.6523438 L59.6523438,68.984375 L59.6523438,70 L43.453125,70 L15.4726562,39.4296875 L15.4726562,70 L1.609375,70 Z M60.0898438,49.6367188 L60.0898438,18.40625 L73.75,18.40625 L73.75,49.1796875 C73.75,52.7005384 74.6301995,55.3157467 76.390625,57.0253906 C78.1510505,58.7350346 80.3854031,59.5898438 83.09375,59.5898438 C85.0911558,59.5898438 87.0292875,59.1243536 88.9082031,58.1933594 C90.7871188,57.2623651 92.1158815,56.3059945 92.8945312,55.3242188 L92.8945312,18.40625 L106.503906,18.40625 L106.503906,70 L94.4179688,70 L94.4179688,65.0234375 C93.8085907,65.8020872 93.0214892,66.5637984 92.0566406,67.3085938 C91.0917921,68.0533891 89.9830792,68.7389292 88.7304688,69.3652344 C87.4778583,69.9915396 86.1237052,70.499347 84.6679688,70.8886719 C83.2122323,71.2779967 81.68881,71.4726562 80.0976562,71.4726562 C77.457018,71.4726562 74.9264444,71.0325565 72.5058594,70.1523438 C70.0852744,69.272131 67.9524832,67.9518317 66.1074219,66.1914062 C64.2623606,64.4309808 62.7981825,62.1627743 61.7148438,59.3867188 C60.631505,56.6106632 60.0898438,53.3606957 60.0898438,49.6367188 Z M116.539062,70 L116.539062,18.40625 L128.574219,18.40625 L128.574219,23.1796875 C130.029955,21.5885337 132.061185,20.1582095 134.667969,18.8886719 C137.274753,17.6191343 140.135401,16.984375 143.25,16.984375 C146.161473,16.984375 148.869779,17.3821575 151.375,18.1777344 C153.880221,18.9733113 156.029939,20.2005125 157.824219,21.859375 C159.618499,23.5182375 161.014969,25.6510286 162.013672,28.2578125 C163.012375,30.8645964 163.511719,33.9960755 163.511719,37.6523438 L163.511719,70 L149.902344,70 L149.902344,38.8203125 C149.902344,35.2994616 148.98829,32.751961 147.160156,31.1777344 C145.332022,29.6035078 142.843766,28.8164062 139.695312,28.8164062 C137.697907,28.8164062 135.819019,29.2649695 134.058594,30.1621094 C132.298168,31.0592493 130.994796,32.0664007 130.148438,33.1835938 L130.148438,70 L116.539062,70 Z M171.007812,31.8125 C171.007812,29.8150942 171.456376,27.9108163 172.353516,26.0996094 C173.250656,24.2884024 174.511711,22.7141994 176.136719,21.3769531 C177.761727,20.0397069 179.716785,18.9733113 182.001953,18.1777344 C184.287121,17.3821575 186.851548,16.984375 189.695312,16.984375 C193.080746,16.984375 196.07681,17.4329382 198.683594,18.3300781 C201.290378,19.227218 203.186192,20.0481734 204.371094,20.7929688 L204.371094,32.2695312 L203.355469,32.2695312 C202.170567,31.2877555 200.401704,30.3821656 198.048828,29.5527344 C195.695952,28.7233031 193.199232,28.3085938 190.558594,28.3085938 C185.988258,28.3085938 183.703125,29.628893 183.703125,32.2695312 C183.703125,33.048181 183.906248,33.6914037 184.3125,34.1992188 C184.718752,34.7070338 185.268877,35.1471336 185.962891,35.5195312 C186.656905,35.8919289 187.418616,36.2558576 188.248047,36.6113281 C189.077478,36.9667987 189.881507,37.2799466 190.660156,37.5507812 L197.109375,40.0390625 C198.63282,40.6484405 200.105462,41.3593709 201.527344,42.171875 C202.949226,42.9843791 204.176427,43.9915304 205.208984,45.1933594 C206.241542,46.3951883 207.07096,47.8509029 207.697266,49.5605469 C208.323571,51.2701908 208.636719,53.2591032 208.636719,55.5273438 C208.636719,57.8294386 208.154302,59.9706932 207.189453,61.9511719 C206.224605,63.9316505 204.819671,65.6158785 202.974609,67.0039062 C201.129548,68.391934 198.945976,69.48372 196.423828,70.2792969 C193.90168,71.0748738 191.083349,71.4726562 187.96875,71.4726562 C184.651025,71.4726562 181.460302,71.0579469 178.396484,70.2285156 C175.332667,69.3990844 172.971362,68.4934945 171.3125,67.5117188 L171.3125,55.5273438 L172.328125,55.5273438 C173.106775,56.1367218 174.088536,56.7291638 175.273438,57.3046875 C176.458339,57.8802112 177.702467,58.3880186 179.005859,58.828125 C180.309251,59.2682314 181.638014,59.6067696 182.992188,59.84375 C184.346361,60.0807304 185.649733,60.1992188 186.902344,60.1992188 C189.746108,60.1992188 191.946607,59.8014363 193.503906,59.0058594 C195.061206,58.2102825 195.839844,56.9830812 195.839844,55.3242188 C195.839844,53.936191 195.3405,52.8105512 194.341797,51.9472656 C193.343094,51.0839801 191.658866,50.1953171 189.289062,49.28125 L183.246094,46.9960938 C181.993483,46.522133 180.664721,45.9212276 179.259766,45.1933594 C177.854811,44.4654912 176.542975,43.5091205 175.324219,42.3242188 C174.105463,41.139317 173.081384,39.7005293 172.251953,38.0078125 C171.422522,36.3150957 171.007812,34.2500122 171.007812,31.8125 Z M210.496094,29.2226562 L210.496094,18.40625 L221.515625,18.40625 L221.515625,4.8984375 L235.125,4.8984375 L235.125,18.40625 L247.820312,18.40625 L247.820312,29.2226562 L235.125,29.2226562 L235.125,57.9140625 L246.957031,57.9140625 L246.957031,70 L221.515625,70 L221.515625,29.2226562 L210.496094,29.2226562 Z M251.8125,44.1015625 C251.8125,40.2083139 252.506503,36.6198081 253.894531,33.3359375 C255.282559,30.0520669 257.1953,27.1914184 259.632812,24.7539062 C262.070325,22.3163941 264.930973,20.4121162 268.214844,19.0410156 C271.498714,17.669915 275.053366,16.984375 278.878906,16.984375 C281.24871,16.984375 283.483062,17.187498 285.582031,17.59375 C287.681,18.000002 289.619132,18.5501267 291.396484,19.2441406 C293.173837,19.9381545 294.72265,20.6829387 296.042969,21.4785156 C297.363288,22.2740925 298.429683,23.0273402 299.242188,23.7382812 L299.242188,49.5351562 L265.015625,49.5351562 C265.625003,52.9205898 267.376939,55.5104077 270.271484,57.3046875 C273.16603,59.0989673 276.695292,59.9960938 280.859375,59.9960938 C284.312517,59.9960938 287.376289,59.5306036 290.050781,58.5996094 C292.725274,57.6686151 295.061188,56.4414139 297.058594,54.9179688 L298.125,54.9179688 L298.125,66.8007812 C296.195303,68.0533917 293.71551,69.1451776 290.685547,70.0761719 C287.655584,71.0071661 283.957053,71.4726562 279.589844,71.4726562 C275.628886,71.4726562 271.955746,70.8294335 268.570312,69.5429688 C265.184879,68.256504 262.239596,66.4368607 259.734375,64.0839844 C257.229154,61.731108 255.282559,58.8535326 253.894531,55.4511719 C252.506503,52.0488111 251.8125,48.2656458 251.8125,44.1015625 Z M264.914062,39.4296875 L287.714844,39.4296875 L287.714844,29.7304688 C287.105466,29.3242167 286.030607,28.9179708 284.490234,28.5117188 C282.949862,28.1054667 281.384123,27.9023438 279.792969,27.9023438 C277.93098,27.9023438 276.153654,28.1562475 274.460938,28.6640625 C272.768221,29.1718775 271.261725,29.9335887 269.941406,30.9492188 C268.621087,31.9648488 267.529301,33.1835866 266.666016,34.6054688 C265.80273,36.0273509 265.218752,37.6354077 264.914062,39.4296875 Z M307.347656,70 L307.347656,18.40625 L319.382812,18.40625 L319.382812,23.1796875 C320.838549,21.5885337 322.869779,20.1582095 325.476562,18.8886719 C328.083346,17.6191343 330.943995,16.984375 334.058594,16.984375 C336.970067,16.984375 339.678373,17.3821575 342.183594,18.1777344 C344.688815,18.9733113 346.838533,20.2005125 348.632812,21.859375 C350.427092,23.5182375 351.823563,25.6510286 352.822266,28.2578125 C353.820969,30.8645964 354.320312,33.9960755 354.320312,37.6523438 L354.320312,70 L340.710938,70 L340.710938,38.8203125 C340.710938,35.2994616 339.796884,32.751961 337.96875,31.1777344 C336.140616,29.6035078 333.652359,28.8164062 330.503906,28.8164062 C328.5065,28.8164062 326.627613,29.2649695 324.867188,30.1621094 C323.106762,31.0592493 321.80339,32.0664007 320.957031,33.1835938 L320.957031,70 L307.347656,70 Z" id="Kunsten" fill="#2B2B29"></path>
    </g>
</svg>
