<svg xmlns="http://www.w3.org/2000/svg" height="240.56" width="1883.92"><path d="M330.428 222.601V0H0V222.6h330.428" fill="#2d49a3"/><path d="M248.064 107.723l-3.448-.07-5.099-.097-1.669-4.545-1.081-2.906-1.063 2.906-1.656 4.545-5.099.096-3.445.07 2.812 2.027 4.019 2.884-1.462 4.55-1.002 3.1 2.718-1.795 4.178-2.765 4.226 2.765 2.686 1.794-.986-3.099-1.446-4.55 4.004-2.884 2.813-2.026" fill="#f3f020"/><path d="M248.064 107.723l-3.448-.07-5.099-.097-1.669-4.545-1.081-2.906-1.063 2.906-1.656 4.545-5.099.096-3.445.07 2.812 2.027 4.019 2.884-1.462 4.55-1.002 3.1 2.718-1.795 4.178-2.765 4.226 2.765 2.686 1.794-.986-3.099-1.446-4.55 4.004-2.884z" fill="none" stroke="#f3f020" stroke-width="1.4751631200000002"/><path d="M222.753 76.741l-1.445 4.559-.984 3.09 2.701-1.771 4.195-2.806 4.227 2.806 2.666 1.77-.969-3.089-1.46-4.559 4.005-2.886 2.826-2.026-3.446-.062-5.117-.079-1.65-4.559-1.082-2.933-1.068 2.933-1.648 4.559-5.101.079-3.448.062 2.796 2.026 4.002 2.886" fill="#f3f020"/><path d="M222.753 76.741l-1.445 4.559-.984 3.09 2.701-1.771 4.195-2.806 4.227 2.806 2.666 1.77-.969-3.089-1.46-4.559 4.005-2.886 2.826-2.026-3.446-.062-5.117-.079-1.65-4.559-1.082-2.933-1.068 2.933-1.648 4.559-5.101.079-3.448.062 2.796 2.026z" fill="none" stroke="#f3f020" stroke-width="1.4751631200000002"/><path d="M203.99 45.581l-1.669-4.549-1.08-2.924-1.062 2.924-1.654 4.55-5.1.089-3.465.077 2.828 2.019 4.02 2.892-1.46 4.552-1.003 3.092 2.716-1.766 4.18-2.789 4.211 2.79 2.703 1.765-1.003-3.092-1.432-4.552 4.005-2.892 2.81-2.019-3.43-.077-5.114-.09" fill="#f3f020"/><path d="M203.99 45.581l-1.669-4.549-1.08-2.924-1.062 2.924-1.654 4.55-5.1.089-3.465.077 2.828 2.019 4.02 2.892-1.46 4.552-1.003 3.092 2.716-1.766 4.18-2.789 4.211 2.79 2.703 1.765-1.003-3.092-1.432-4.552 4.005-2.892 2.81-2.019-3.43-.077z" fill="none" stroke="#f3f020" stroke-width="1.4751631200000002"/><path d="M167.67 35.955l-1.669-4.538-1.084-2.922-1.046 2.922-1.67 4.538-5.098.112-3.464.054 2.829 2.026 4.004 2.9-1.447 4.56-1 3.081 2.7-1.763 4.192-2.796 4.227 2.796 2.685 1.763-.981-3.081-1.448-4.56 4.005-2.9 2.794-2.026-3.43-.054-5.098-.112" fill="#f3f020"/><path d="M167.67 35.955l-1.669-4.538-1.084-2.922-1.046 2.922-1.67 4.538-5.098.112-3.464.054 2.829 2.026 4.004 2.9-1.447 4.56-1 3.081 2.7-1.763 4.192-2.796 4.227 2.796 2.685 1.763-.981-3.081-1.448-4.56 4.005-2.9 2.794-2.026-3.43-.054z" fill="none" stroke="#f3f020" stroke-width="1.4751631200000002"/><path d="M131.665 45.581l-1.669-4.549-1.047-2.924-1.065 2.924-1.666 4.55-5.102.089-3.463.054 2.812 2.034 4.021 2.884-1.449 4.55-.996 3.11 2.697-1.796 4.21-2.774 4.181 2.774 2.7 1.796-.984-3.11-1.448-4.55 4.006-2.884 2.828-2.034-3.464-.054-5.102-.09" fill="#f3f020"/><path d="M131.665 45.581l-1.669-4.549-1.047-2.924-1.065 2.924-1.666 4.55-5.102.089-3.463.054 2.812 2.034 4.021 2.884-1.449 4.55-.996 3.11 2.697-1.796 4.21-2.774 4.181 2.774 2.7 1.796-.984-3.11-1.448-4.55 4.006-2.884 2.828-2.034-3.464-.054z" fill="none" stroke="#f3f020" stroke-width="1.4751631200000002"/><path d="M105.452 71.41l-1.64-4.538-1.064-2.913-1.078 2.913-1.653 4.537-5.102.095-3.447.065 2.812 2.034 4.005 2.89-1.46 4.544-.972 3.099 2.67-1.779 4.21-2.781 4.21 2.781 2.686 1.779-.987-3.099-1.445-4.544 4.02-2.89 2.797-2.034-3.45-.065-5.112-.095" fill="#f3f020"/><path d="M105.452 71.41l-1.64-4.538-1.064-2.913-1.078 2.913-1.653 4.537-5.102.095-3.447.065 2.812 2.034 4.005 2.89-1.46 4.544-.972 3.099 2.67-1.779 4.21-2.781 4.21 2.781 2.686 1.779-.987-3.099-1.445-4.544 4.02-2.89 2.797-2.034-3.45-.065z" fill="none" stroke="#f3f020" stroke-width="1.4751631200000002"/><path d="M97.14 118.423l2.7 1.794-.982-3.113-1.448-4.544 4.003-2.89 2.812-2.018-3.445-.073-5.101-.087-1.667-4.537-1.065-2.915-1.068 2.915-1.666 4.537-5.1.087-3.448.073 2.794 2.017 4.021 2.891-1.445 4.544-.984 3.113 2.682-1.794 4.214-2.78 4.193 2.78" fill="#f3f020"/><path d="M97.14 118.423l2.7 1.794-.982-3.113-1.448-4.544 4.003-2.89 2.812-2.018-3.445-.073-5.101-.087-1.667-4.537-1.065-2.915-1.068 2.915-1.666 4.537-5.1.087-3.448.073 2.794 2.017 4.021 2.891-1.445 4.544-.984 3.113 2.682-1.794 4.214-2.78z" fill="none" stroke="#f3f020" stroke-width="1.4751631200000002"/><path d="M105.337 143.099l-1.667-4.529-1.05-2.917-1.08 2.917-1.666 4.529-5.1.11-3.447.078 2.81 2.002 4.005 2.908-1.448 4.546-1 3.072 2.7-1.755 4.196-2.779 4.211 2.779 2.685 1.77-.984-3.087-1.43-4.546 4.003-2.908 2.796-2.002-3.448-.078-5.086-.11" fill="#f3f020"/><path d="M105.337 143.099l-1.667-4.529-1.05-2.917-1.08 2.917-1.666 4.529-5.1.11-3.447.078 2.81 2.002 4.005 2.908-1.448 4.546-1 3.072 2.7-1.755 4.196-2.779 4.211 2.779 2.685 1.77-.984-3.087-1.43-4.546 4.003-2.908 2.796-2.002-3.448-.078z" fill="none" stroke="#f3f020" stroke-width="1.4751631200000002"/><path d="M131.347 169.17l-1.65-4.56-1.066-2.914-1.08 2.915-1.652 4.56-5.117.08-3.447.078 2.828 2.019 3.986 2.892-1.43 4.541-1 3.1 2.684-1.764 4.228-2.789 4.177 2.79 2.72 1.763-1.003-3.1-1.443-4.54 4.002-2.893 2.83-2.019-3.465-.078-5.102-.08" fill="#f3f020"/><path d="M131.347 169.17l-1.65-4.56-1.066-2.914-1.08 2.915-1.652 4.56-5.117.08-3.447.078 2.828 2.019 3.986 2.892-1.43 4.541-1 3.1 2.684-1.764 4.228-2.789 4.177 2.79 2.72 1.763-1.003-3.1-1.443-4.54 4.002-2.893 2.83-2.019-3.465-.078z" fill="none" stroke="#f3f020" stroke-width="1.4751631200000002"/><path d="M167.637 178.79l-1.652-4.52-1.082-2.931-1.047 2.931-1.67 4.52-5.1.105-3.465.08 2.812 2.033 4.024 2.873-1.464 4.546-.968 3.106 2.684-1.785 4.194-2.79 4.213 2.79 2.685 1.785-.969-3.106-1.464-4.546 4.005-2.873 2.811-2.033-3.43-.08-5.117-.104" fill="#f3f020"/><path d="M167.637 178.79l-1.652-4.52-1.082-2.931-1.047 2.931-1.67 4.52-5.1.105-3.465.08 2.812 2.033 4.024 2.873-1.464 4.546-.968 3.106 2.684-1.785 4.194-2.79 4.213 2.79 2.685 1.785-.969-3.106-1.464-4.546 4.005-2.873 2.811-2.033-3.43-.08z" fill="none" stroke="#f3f020" stroke-width="1.4751631200000002"/><path d="M203.657 169.345l-1.669-4.544-1.065-2.916-1.064 2.916-1.655 4.544-5.099.112-3.464.064 2.831 2.016 4.003 2.891-1.448 4.547-.984 3.097 2.685-1.765 4.195-2.787 4.212 2.787 2.669 1.765-.953-3.097-1.448-4.547 3.986-2.89 2.815-2.017-3.448-.064-5.099-.112" fill="#f3f020"/><path d="M203.657 169.345l-1.669-4.544-1.065-2.916-1.064 2.916-1.655 4.544-5.099.112-3.464.064 2.831 2.016 4.003 2.891-1.448 4.547-.984 3.097 2.685-1.765 4.195-2.787 4.212 2.787 2.669 1.765-.953-3.097-1.448-4.547 3.986-2.89 2.815-2.017-3.448-.064z" fill="none" stroke="#f3f020" stroke-width="1.4751631200000002"/><path d="M229.824 143.417l-1.67-4.548-1.062-2.904-1.065 2.904-1.668 4.548-5.103.094-3.445.065 2.826 2.033 3.992 2.883-1.445 4.56-.972 3.09 2.672-1.78 4.208-2.78 4.21 2.78 2.67 1.78-.987-3.09-1.429-4.56 4.005-2.883 2.812-2.033-3.45-.065-5.099-.094" fill="#f3f020"/><path d="M229.824 143.417l-1.67-4.548-1.062-2.904-1.065 2.904-1.668 4.548-5.103.094-3.445.065 2.826 2.033 3.992 2.883-1.445 4.56-.972 3.09 2.672-1.78 4.208-2.78 4.21 2.78 2.67 1.78-.987-3.09-1.429-4.56 4.005-2.883 2.812-2.033-3.45-.065z" fill="none" stroke="#f3f020" stroke-width="1.4751631200000002"/><text style="-inkscape-font-specification:ArialMT" transform="matrix(1.33333 0 0 1.33333 362.095 61.28)" font-weight="400" font-size="50" font-family="Arial" fill="#2d49a3"><tspan y="0" x="0 47.200001 58.299999 72.199997 100 113.9 127.8 155.60001 183.39999 197.3 222.3 250.10001 277.89999 305.70001 333.5 350.14999 364.04999 377.95001 405.75 419.64999 433.54999 447.45001 475.25 503.04999">With the support of the </tspan><tspan y="55.001" x="0 33.349998 50 77.800003 102.8 144.45 172.25 197.25 226.45 240.35001 273.70001 290.35001 318.14999 345.95001 362.60001 390.39999 432.04999 473.70001 501.5">Erasmus+ Programme </tspan><tspan y="110.001" x="0 27.799999 41.700001 55.599998 69.5 97.300003 125.1 139 172.35001 200.14999 216.8 244.60001 272.39999 300.20001 328 355.79999 369.70001 405.79999 433.60001 444.70001 472.5">of the European Union</tspan></text></svg>