<?xml version="1.0" encoding="utf-8"?>
<!-- Generator: Adobe Illustrator 25.0.0, SVG Export Plug-In . SVG Version: 6.00 Build 0)  -->
<svg version="1.1" id="Layer_1" xmlns="http://www.w3.org/2000/svg" xmlns:xlink="http://www.w3.org/1999/xlink" x="0px" y="0px"
	 viewBox="0 0 960 956.5" style="enable-background:new 0 0 960 956.5;" xml:space="preserve">
<style type="text/css">
	.st0{clip-path:url(#SVGID_2_);}
	.st1{clip-path:url(#SVGID_4_);}
	.st2{opacity:0.25;}
	.st3{clip-path:url(#SVGID_6_);}
	.st4{fill:#66747C;}
	.st5{clip-path:url(#SVGID_8_);}
	.st6{fill:none;stroke:#5E5C6A;stroke-width:5;stroke-linecap:round;stroke-linejoin:round;}
	.st7{fill:none;stroke:#5E5C6A;stroke-width:0.25;stroke-linecap:round;stroke-linejoin:round;}
	.st8{fill:none;stroke:#5E5C6A;stroke-width:0.25;stroke-linecap:round;stroke-linejoin:round;stroke-dasharray:2.004,2.004;}
	.st9{fill:#5E5C6A;}
	.st10{font-family:'HeroNew-Bold';}
	.st11{font-size:32px;}
	.st12{clip-path:url(#SVGID_10_);}
	.st13{fill:none;stroke:#5E5C6A;stroke-width:0.25;stroke-linecap:round;stroke-linejoin:round;stroke-dasharray:2.002,2.002;}
	.st14{fill:none;stroke:#5E5C6A;stroke-width:0.25;stroke-linecap:round;stroke-linejoin:round;stroke-dasharray:2.01,2.01;}
	.st15{fill:none;stroke:#5E5C6A;stroke-width:0.25;stroke-linecap:round;stroke-linejoin:round;stroke-dasharray:2.012,2.012;}
	.st16{fill:none;stroke:#5E5C6A;stroke-width:0.25;stroke-linecap:round;stroke-linejoin:round;stroke-dasharray:2.008,2.008;}
	.st17{fill:none;stroke:#5E5C6A;stroke-width:0.25;stroke-linecap:round;stroke-linejoin:round;stroke-dasharray:2.019,2.019;}
	.st18{fill:none;stroke:#5E5C6A;stroke-width:0.25;stroke-linecap:round;stroke-linejoin:round;stroke-dasharray:2.005,2.005;}
	.st19{font-family:'HeroNew-Light';}
	.st20{font-size:18px;}
	.st21{font-size:17px;}
	.st22{clip-path:url(#SVGID_12_);}
	.st23{fill:none;}
	.st24{opacity:0.5;}
	.st25{opacity:0.3;}
	.st26{fill:#FFFFFF;}
	.st27{font-size:20px;}
	.st28{letter-spacing:1;}
	.st29{opacity:0.325;}
</style>
<g id="Group_27" transform="translate(1238.77 374.643)">
	<g>
		<defs>
			<rect id="SVGID_1_" x="-960" y="-60.9" width="399.7" height="350.4"/>
		</defs>
		<clipPath id="SVGID_2_">
			<use xlink:href="#SVGID_1_"  style="overflow:visible;"/>
		</clipPath>
		<g id="Group_26" class="st0">
			<g id="Group_25" transform="translate(0 -0.001)">
				<g>
					<defs>
						<rect id="SVGID_3_" x="-960" y="-60.9" width="399.7" height="350.4"/>
					</defs>
					<clipPath id="SVGID_4_">
						<use xlink:href="#SVGID_3_"  style="overflow:visible;"/>
					</clipPath>
					<g id="Group_24" class="st1">
						<g id="Group_23" transform="translate(0 0)" class="st2">
							<g id="Group_22">
								<g>
									<defs>
										<rect id="SVGID_5_" x="-960" y="-60.9" width="399.7" height="350.4"/>
									</defs>
									<clipPath id="SVGID_6_">
										<use xlink:href="#SVGID_5_"  style="overflow:visible;"/>
									</clipPath>
									<g id="Group_21" class="st3">
										<path id="Path_9" class="st4" d="M-959,87.1c18.5-114.5,290.8-209.3,371.9-99c45.3,61.5,32.3,188.8-32,255.7
											c-81.9,85.2-213.5,37.7-280.2-31.6C-918.6,192.1-967.7,141.1-959,87.1"/>
									</g>
								</g>
							</g>
						</g>
					</g>
				</g>
			</g>
		</g>
	</g>
</g>
<g>
	<defs>
		<rect id="SVGID_7_" y="-0.5" width="959" height="958.7"/>
	</defs>
	<clipPath id="SVGID_8_">
		<use xlink:href="#SVGID_7_"  style="overflow:visible;"/>
	</clipPath>
	<g id="Group_45" transform="translate(960 60.353)" class="st5">
		<circle id="Ellipse_3" class="st6" cx="-480.4" cy="418.4" r="309.5"/>
		<line id="Line_1" class="st7" x1="-1.9" y1="897.6" x2="-2.9" y2="896.6"/>
		<line id="Line_2" class="st8" x1="-5" y1="894.5" x2="-957.8" y2="-58.3"/>
		<line id="Line_3" class="st7" x1="-958.8" y1="-59.3" x2="-959.8" y2="-60.4"/>
		<line id="Line_4" class="st7" x1="-959.5" y1="897.6" x2="-958.5" y2="896.6"/>
		<line id="Line_5" class="st8" x1="-956.4" y1="894.5" x2="-3.2" y2="-58.6"/>
		<line id="Line_6" class="st7" x1="-2.2" y1="-59.7" x2="-1.2" y2="-60.7"/>
	</g>
</g>
<text transform="matrix(0.7071 0.7071 -0.7071 0.7071 190.0146 201.5189)" class="st9 st10 st11">A</text>
<text transform="matrix(0.7071 0.7071 -0.7071 0.7071 207.1211 218.6254)" class="st9 st10 st11">R</text>
<text transform="matrix(0.7071 0.7071 -0.7071 0.7071 221.6475 233.152)" class="st9 st10 st11">T</text>
<text transform="matrix(0.7071 -0.7071 0.7071 0.7071 720.8918 250.4562)" class="st9 st10 st11">SCIENCE</text>
<text transform="matrix(0.7071 -0.7071 0.7071 0.7071 154.8499 813.382)" class="st9 st10 st11">DESIGN</text>
<text transform="matrix(0.7071 0.7071 -0.7071 0.7071 708.1816 718.6649)" class="st9 st10 st11">ENGINEERING</text>
<g id="Group_48" transform="translate(960 60.353)">
	<g>
		<defs>
			<rect id="SVGID_9_" x="-960" y="-60.9" width="959" height="958.7"/>
		</defs>
		<clipPath id="SVGID_10_">
			<use xlink:href="#SVGID_9_"  style="overflow:visible;"/>
		</clipPath>
		<g id="Group_47" class="st12">
			<path id="Path_18" class="st7" d="M-746,416.3c0-0.5,0-1,0-1.5"/>
			<path id="Path_19" class="st13" d="M-746,412c1.5-66.4,27.8-129.8,73.8-177.7"/>
			<path id="Path_20" class="st7" d="M-671.1,233.2c0.3-0.3,0.7-0.7,1-1"/>
			<path id="Path_21" class="st9" d="M-738.4,410.5l-1.3-1.3l-6.3,6.4l-5.9-6.7l-1.4,1.2l7.2,8.2L-738.4,410.5z"/>
			<path id="Path_22" class="st9" d="M-668.8,241.7l-1.8,0l0.1-9l-9,0.6l-0.1-1.8l10.9-0.7L-668.8,241.7z"/>
			<path id="Path_23" class="st7" d="M-669.5,605.1c-0.3-0.3-0.7-0.7-1-1"/>
			<path id="Path_24" class="st14" d="M-672.5,601.9c-46.1-48.2-72.3-112-73.5-178.7"/>
			<path id="Path_25" class="st7" d="M-746,421.7c0-0.5,0-1,0-1.5"/>
			<path id="Path_26" class="st9" d="M-668.2,595.5l-1.8,0l0.1,9l-9-0.5l-0.1,1.8l10.9,0.7L-668.2,595.5z"/>
			<path id="Path_27" class="st9" d="M-738.4,426.1l-1.3,1.3l-6.3-6.4l-5.9,6.7l-1.4-1.2l7.2-8.2L-738.4,426.1z"/>
			<path id="Path_28" class="st7" d="M-481.9,684.4l-1.5,0"/>
			<path id="Path_29" class="st14" d="M-486.3,684.3c-66.7-1.5-130.4-28.1-178.3-74.4"/>
			<path id="Path_30" class="st7" d="M-665.7,608.9c-0.3-0.3-0.7-0.7-1-1"/>
			<path id="Path_31" class="st9" d="M-487.7,676.8l-1.3,1.3l6.4,6.3l-6.7,5.9l1.2,1.4l8.2-7.2L-487.7,676.8z"/>
			<path id="Path_32" class="st9" d="M-657.2,606.6l0,1.8l-9-0.1l0.5,9l-1.8,0.1l-0.7-10.9L-657.2,606.6z"/>
			<path id="Path_33" class="st7" d="M-293.2,607.9l-1,1"/>
			<path id="Path_34" class="st14" d="M-296.3,610.9c-48.2,46.1-112,72.3-178.7,73.5"/>
			<path id="Path_35" class="st7" d="M-476.5,684.4l-1.5,0"/>
			<path id="Path_36" class="st9" d="M-302.7,606.6l0,1.8l9-0.1l-0.5,9l1.8,0.1l0.7-10.9L-302.7,606.6z"/>
			<path id="Path_37" class="st9" d="M-472.1,676.8l1.3,1.3l-6.4,6.3l6.7,5.9l-1.2,1.4l-8.2-7.2L-472.1,676.8z"/>
			<path id="Path_38" class="st7" d="M-213.8,420.3c0,0.5,0,1,0,1.5"/>
			<path id="Path_39" class="st14" d="M-213.9,424.7C-215.4,491.4-242,555-288.3,603"/>
			<path id="Path_40" class="st7" d="M-289.3,604c-0.3,0.3-0.7,0.7-1,1"/>
			<path id="Path_41" class="st9" d="M-221.5,426.1l1.3,1.3l6.3-6.4l5.9,6.7l1.4-1.2l-7.2-8.2L-221.5,426.1z"/>
			<path id="Path_42" class="st9" d="M-291.6,595.5l1.8,0l-0.1,9l9-0.5l0.1,1.8l-10.9,0.7L-291.6,595.5z"/>
			<path id="Path_43" class="st7" d="M-290.4,231.4c0.3,0.3,0.7,0.7,1,1"/>
			<path id="Path_44" class="st15" d="M-287.4,234.5c46.2,48.2,72.4,112.1,73.6,178.9"/>
			<path id="Path_45" class="st7" d="M-213.8,414.9c0,0.5,0,1,0,1.5"/>
			<path id="Path_46" class="st9" d="M-291.7,240.9l1.8,0l-0.1-9l9,0.5l0.1-1.8l-10.9-0.6L-291.7,240.9z"/>
			<path id="Path_47" class="st9" d="M-221.4,410.5l1.3-1.3l6.3,6.4l5.9-6.7l1.4,1.2l-7.2,8.2L-221.4,410.5z"/>
			<path id="Path_48" class="st7" d="M-477.9,152.2c0.5,0,1,0,1.5,0"/>
			<path id="Path_49" class="st16" d="M-473.6,152.3c66.6,1.5,130.2,28,178.2,74.3"/>
			<path id="Path_50" class="st7" d="M-294.3,227.6c0.3,0.3,0.7,0.7,1,1"/>
			<path id="Path_51" class="st9" d="M-472.1,159.8l1.3-1.3l-6.4-6.3l6.7-5.9l-1.2-1.4l-8.2,7.2L-472.1,159.8z"/>
			<path id="Path_52" class="st9" d="M-302.8,229.9l0-1.8l9,0.1l-0.5-9l1.8-0.1l0.7,10.9L-302.8,229.9z"/>
			<path id="Path_53" class="st7" d="M-667.3,229.4c0.3-0.3,0.7-0.7,1-1"/>
			<path id="Path_54" class="st17" d="M-664.2,226.3c48.3-46.5,112.3-72.9,179.3-74.1"/>
			<path id="Path_55" class="st7" d="M-483.4,152.2l1.5,0"/>
			<path id="Path_56" class="st9" d="M-657.8,230.6l0-1.8l-9,0.1l0.5-9l-1.8-0.1l-0.6,10.9L-657.8,230.6z"/>
			<path id="Path_57" class="st9" d="M-487.7,159.8l-1.3-1.3l6.4-6.3l-6.7-5.9l1.2-1.4l8.2,7.2L-487.7,159.8z"/>
			<line id="Line_7" class="st7" x1="-480.7" y1="897.6" x2="-480.7" y2="896.2"/>
			<path id="Path_58" class="st8" d="M-480.7,893.2V-57.4"/>
			<line id="Line_8" class="st7" x1="-480.7" y1="-58.9" x2="-480.7" y2="-60.4"/>
			<line id="Line_9" class="st7" x1="-959.5" y1="418.7" x2="-958" y2="418.7"/>
			<path id="Path_59" class="st18" d="M-955.1,418.7h951"/>
			<line id="Line_10" class="st7" x1="-2.6" y1="418.7" x2="-1.2" y2="418.7"/>
		</g>
	</g>
</g>
<text transform="matrix(6.123234e-17 -1 1 6.123234e-17 30.747 442.6823)" class="st9 st19 st20">P</text>
<text transform="matrix(6.123234e-17 -1 1 6.123234e-17 30.747 432.5123)" class="st9 st19 st20">e</text>
<text transform="matrix(6.123234e-17 -1 1 6.123234e-17 30.747 421.9645)" class="st9 st19 st20">r</text>
<text transform="matrix(6.123234e-17 -1 1 6.123234e-17 30.747 415.5387)" class="st9 st19 st20">ception</text>
<text transform="matrix(6.123234e-17 -1 1 6.123234e-17 29.747 620.2672)" class="st9 st19 st21">P</text>
<text transform="matrix(6.123234e-17 -1 1 6.123234e-17 29.747 610.1012)" class="st9 st19 st21">r</text>
<text transform="matrix(6.123234e-17 -1 1 6.123234e-17 29.747 604.0319)" class="st9 st19 st21">oduction</text>
<text transform="matrix(1 0 0 1 369.071 32.36)" class="st9 st19 st20">Cultu</text>
<text transform="matrix(1 0 0 1 413.3325 32.36)" class="st9 st19 st20">r</text>
<text transform="matrix(1 0 0 1 419.7583 32.36)" class="st9 st19 st20">e</text>
<text transform="matrix(1 0 0 1 520.998 32.36)" class="st9 st19 st20">Natu</text>
<text transform="matrix(1 0 0 1 564.0713 32.36)" class="st9 st19 st20">r</text>
<text transform="matrix(1 0 0 1 570.4972 32.36)" class="st9 st19 st20">e</text>
<g id="Group_50" transform="translate(960 60.353)">
	<g>
		<defs>
			<rect id="SVGID_11_" x="-960" y="-60.9" width="959" height="958.7"/>
		</defs>
		<clipPath id="SVGID_12_">
			<use xlink:href="#SVGID_11_"  style="overflow:visible;"/>
		</clipPath>
		<g id="Group_49" class="st22">
			<path id="Path_60" class="st9" d="M-467.2-18.7l-1.8-1.9l9.5-8.8l-9.5-8.8l1.8-1.9l11.5,10.7L-467.2-18.7z"/>
			<path id="Path_61" class="st9" d="M-494.1-40.2l1.8,1.9l-9.5,8.8l9.5,8.8l-1.8,1.9l-11.5-10.7L-494.1-40.2z"/>
			<path id="Path_62" class="st9" d="M-920,405.3l-1.9,1.8l-8.8-9.5l-8.8,9.5l-1.9-1.8l10.7-11.5L-920,405.3z"/>
			<path id="Path_63" class="st9" d="M-941.4,432.2l1.9-1.8l8.8,9.5l8.8-9.5l1.9,1.8l-10.7,11.5L-941.4,432.2z"/>
		</g>
	</g>
</g>
<text transform="matrix(1 0 0 1 425.76 247.081)" class="st4 st10 st20">philosophy</text>
<text transform="matrix(1 0 0 1 435.855 715.22)" class="st4 st10 st20">economy</text>
<text transform="matrix(1 0 0 1 421.9659 146.55)" class="st4 st10 st21">info</text>
<text transform="matrix(1 0 0 1 455.8129 146.55)" class="st4 st10 st21">r</text>
<text transform="matrix(1 0 0 1 462.9868 146.55)" class="st4 st10 st21">mation</text>
<text transform="matrix(1 0 0 1 827.98 483.424)" class="st4 st10 st20">knowledge</text>
<text transform="matrix(1 0 0 1 451.254 825.785)" class="st4 st10 st20">utility</text>
<text transform="matrix(1 0 0 1 55.865 482.589)" class="st4 st10 st20">behaviour</text>
<rect id="Rectangle_12" y="-0.5" class="st23" width="959" height="958.7"/>
<text transform="matrix(1 0 0 1 833.592 20.7)" class="st19 st20">Perception &amp;</text>
<text transform="matrix(1 0 0 1 888.436 45.175)" class="st19 st20">Nature</text>
<text transform="matrix(1 0 0 1 11.977 20.7)" class="st19 st20">Perception &amp;</text>
<text transform="matrix(1 0 0 1 11.977 44.175)" class="st19 st21">Culture</text>
<text transform="matrix(1 0 0 1 11.977 917.045)" class="st19 st20">Production &amp;</text>
<text transform="matrix(1 0 0 1 11.977 940.519)" class="st19 st21">Culture</text>
<text transform="matrix(1 0 0 1 831.594 917.045)" class="st19 st20">Production &amp;</text>
<text transform="matrix(1 0 0 1 888.436 941.519)" class="st19 st20">Nature</text>
<rect id="Rectangle_13" y="-0.5" class="st23" width="959" height="958.7"/>
<g id="Group_19" transform="translate(1422.836 423.472)" class="st24">
	<path id="Path_6" class="st4" d="M-889.8-60.9c-38.8,0-70.2,31.4-70.2,70.2s31.4,70.2,70.2,70.2s70.2-31.4,70.2-70.2l0,0
		C-819.6-29.5-851-60.9-889.8-60.9"/>
</g>
<g id="Group_18" transform="translate(1419.569 513.154)" class="st25">
	<path id="Path_6-2" class="st4" d="M-886.6-60.9c-40.5,0-73.4,31.6-73.4,70.5S-927.1,80-886.6,80s73.4-31.6,73.4-70.5
		S-846-60.9-886.6-60.9"/>
</g>
<text transform="matrix(1 0 0 1 497.02 544.109)" class="st26 st19 st27 st28">Robotics</text>
<g id="Group_20" transform="matrix(1, 0.017, -0.017, 1, 1349.149, 419.832)" class="st29">
	<path id="Path_6-3" class="st4" d="M-886.3-44.6c-41.1,0-74.4,31.7-74.4,70.7s33.3,70.7,74.4,70.7s74.4-31.7,74.4-70.7
		S-845.2-44.6-886.3-44.6"/>
</g>
<text transform="matrix(1 0 0 1 416.48 429.109)" class="st26 st19 st27 st28">Art</text>
<text transform="matrix(1 0 0 1 434.77 645.109)" class="st4 st19 st27 st28">Sustainability</text>
<text transform="matrix(1 0 0 1 497.38 419.109)" class="st26 st19 st27 st28">Artificial </text>
<text transform="matrix(1 0 0 1 503.02 447.109)" class="st26 st19 st27 st28">biology</text>
<g id="Group_58" transform="translate(1312.635 502.802)" class="st29">
	<path id="Path_6-4" class="st4" d="M-885.4-60.9c-41.2,0-74.6,31.9-74.6,71.3s33.4,71.3,74.6,71.3s74.6-31.9,74.6-71.3
		S-844.2-60.9-885.4-60.9"/>
</g>
<text transform="matrix(1 0 0 1 365.58 527.109)" class="st26 st19 st27 st28">Design</text>
</svg>
