<svg id="Layer_1" data-name="Layer 1" xmlns="http://www.w3.org/2000/svg" width="329.48" height="284.59" viewBox="0 0 329.48 284.59">
  <g id="Group_59" data-name="Group 59">
    <g id="Group_31" data-name="Group 31">
      <g id="Group_28" data-name="Group 28">
        <path id="Path_10" data-name="Path 10" d="M62.48,228.11c0,31.2-14,56.48-31.24,56.48S0,259.3,0,228.11s14-56.48,31.24-56.48,31.24,25.28,31.24,56.48" fill="#66747c"/>
        <path id="Path_11" data-name="Path 11" d="M50.06,145.25a18.82,18.82,0,1,1-18.82-18.81h0a18.82,18.82,0,0,1,18.82,18.81" fill="#66747c"/>
      </g>
      <g id="Group_29" data-name="Group 29">
        <path id="Path_13" data-name="Path 13" d="M151.48,228.11c0,31.2-14,56.48-31.24,56.48S89,259.3,89,228.11s14-56.48,31.24-56.48,31.24,25.28,31.24,56.48" fill="#66747c"/>
        <path id="Path_14" data-name="Path 14" d="M139.06,145.25a18.82,18.82,0,1,1-18.82-18.81h0a18.82,18.82,0,0,1,18.82,18.81" fill="#66747c"/>
      </g>
      <g id="Group_30" data-name="Group 30">
        <path id="Path_16" data-name="Path 16" d="M240.48,228.11c0,31.2-14,56.48-31.24,56.48S178,259.3,178,228.11s14-56.48,31.24-56.48,31.24,25.28,31.24,56.48" fill="#66747c"/>
        <path id="Path_17" data-name="Path 17" d="M228.06,145.25a18.82,18.82,0,1,1-18.82-18.81h0a18.82,18.82,0,0,1,18.82,18.81" fill="#66747c"/>
      </g>
    </g>
    <ellipse id="Ellipse_2" data-name="Ellipse 2" cx="164.5" cy="48.5" rx="164.5" ry="48.5" fill="#fff"/>
    <path id="Polygon_1" data-name="Polygon 1" d="M56,112,24,52H88Z" fill="#fff"/>
    <path id="Polygon_3" data-name="Polygon 3" d="M273,112,241,52h64Z" fill="#fff"/>
    <g id="Group_56" data-name="Group 56">
      <g id="Group_28-2" data-name="Group 28-2">
        <path id="Path_10-2" data-name="Path 10-2" d="M62.48,228.11c0,31.2-14,56.48-31.24,56.48S0,259.3,0,228.11s14-56.48,31.24-56.48,31.24,25.28,31.24,56.48" fill="#66747c"/>
        <path id="Path_11-2" data-name="Path 11-2" d="M50.06,145.25a18.82,18.82,0,1,1-18.82-18.81h0a18.82,18.82,0,0,1,18.82,18.81" fill="#66747c"/>
      </g>
      <g id="Group_29-2" data-name="Group 29-2">
        <path id="Path_13-2" data-name="Path 13-2" d="M151.48,228.11c0,31.2-14,56.48-31.24,56.48S89,259.3,89,228.11s14-56.48,31.24-56.48,31.24,25.28,31.24,56.48" fill="#66747c"/>
        <path id="Path_14-2" data-name="Path 14-2" d="M139.06,145.25a18.82,18.82,0,1,1-18.82-18.81h0a18.82,18.82,0,0,1,18.82,18.81" fill="#66747c"/>
      </g>
      <g id="Group_30-2" data-name="Group 30-2">
        <path id="Path_16-2" data-name="Path 16-2" d="M240.48,228.11c0,31.2-14,56.48-31.24,56.48S178,259.3,178,228.11s14-56.48,31.24-56.48,31.24,25.28,31.24,56.48" fill="#66747c"/>
        <path id="Path_17-2" data-name="Path 17-2" d="M228.06,145.25a18.82,18.82,0,1,1-18.82-18.81h0a18.82,18.82,0,0,1,18.82,18.81" fill="#66747c"/>
      </g>
      <g id="Group_57" data-name="Group 57">
        <path id="Path_16-3" data-name="Path 16-3" d="M329.48,228.11c0,31.2-14,56.48-31.24,56.48S267,259.3,267,228.11s14-56.48,31.24-56.48,31.24,25.28,31.24,56.48" fill="#66747c"/>
        <path id="Path_17-3" data-name="Path 17-3" d="M317.06,145.25a18.82,18.82,0,1,1-18.82-18.81h0a18.82,18.82,0,0,1,18.82,18.81" fill="#66747c"/>
      </g>
    </g>
    <path id="Polygon_4" data-name="Polygon 4" d="M120,112,88,52h64Z" fill="#fff"/>
    <path id="Polygon_5" data-name="Polygon 5" d="M209,112,177,52h64Z" fill="#fff"/>
    <g id="Group_33" data-name="Group 33">
      <path id="Path_5" data-name="Path 5" d="M131.63,54.62a8.88,8.88,0,1,0-12.56,0,8.88,8.88,0,0,0,12.56,0h0" fill="#d1d9d6"/>
    </g>
    <g id="Group_34" data-name="Group 34">
      <path id="Path_5-2" data-name="Path 5-2" d="M171.21,54.62a8.88,8.88,0,1,0-12.56,0,8.88,8.88,0,0,0,12.56,0h0" fill="#d1d9d6"/>
    </g>
    <g id="Group_35" data-name="Group 35">
      <path id="Path_5-3" data-name="Path 5-3" d="M210.79,54.62a8.88,8.88,0,1,0-12.56,0,8.88,8.88,0,0,0,12.56,0h0" fill="#d1d9d6"/>
    </g>
  </g>
</svg>
