<!-- <?xml version="1.0" encoding="utf-8"?> -->
<!-- Generator: Adobe Illustrator 25.0.0, SVG Export Plug-In . SVG Version: 6.00 Build 0)  -->
<svg version="1.1" id="Layer_1" xmlns="http://www.w3.org/2000/svg" xmlns:xlink="http://www.w3.org/1999/xlink" x="0px" y="0px"
	 viewBox="0 0 3221 1536" style="enable-background:new 0 0 3221 1536;" xml:space="preserve">
<style type="text/css">
	.st0{opacity:0.6;fill-rule:evenodd;clip-rule:evenodd;fill:#F3FBF9;}
	.st1{opacity:0.3;fill-rule:evenodd;clip-rule:evenodd;fill:#66747C;}
	.st2{opacity:0.3;fill-rule:evenodd;clip-rule:evenodd;fill:#D1D9D6;}
	.st3{fill:none;stroke:#D0D2D3;stroke-width:5;stroke-miterlimit:10;}
	.st4{fill:none;stroke:#D0D2D3;stroke-width:5;stroke-miterlimit:10;stroke-dasharray:2.0033,2.0033;}
	.st5{fill:none;stroke:#000000;stroke-width:10;stroke-miterlimit:10;}
	.st6{fill:none;stroke:#D0D2D3;stroke-width:5;stroke-miterlimit:10;stroke-dasharray:2,2;}
	.st7{fill:none;stroke:#D0D2D3;stroke-width:5;stroke-miterlimit:10;stroke-dasharray:2.0018,2.0018;}
	.st8{fill:none;}
	.st9{font-family:'HeroNew-Regular';}
	.st10{font-size:24px;}
	.st11{font-family:'HeroNew-ExtraBold';}
	.st12{font-size:18px;}
	.st13{font-family:'HeroNew-Bold';}
	.st14{fill:none;stroke:#000000;stroke-width:0.25;stroke-miterlimit:10;}
	.st15{fill:none;stroke:#00FF00;stroke-miterlimit:10;}
	.st16{fill:none;stroke:#000000;stroke-miterlimit:10;}
</style>
<path class="st0" d="M2100,1461h-582c-6.6,0-12-5.4-12-12v-227c0-6.6,5.4-12,12-12h582c6.6,0,12,5.4,12,12v227
	C2112,1455.6,2106.6,1461,2100,1461z"/>
<path class="st1" d="M2743,256H1193c-11,0-20-9-20-20v-16c0-11,9-20,20-20h1550c11,0,20,9,20,20v16C2763,247,2754,256,2743,256z"/>
<path class="st2" d="M2741,351H1525c-11,0-20-9-20-20v-18c0-11,9-20,20-20h1216c11,0,20,9,20,20v18C2761,342,2752,351,2741,351z"/>
<path class="st2" d="M2163,506h-580c-22,0-40-18-40-40v-13c0-22,18-40,40-40h580c22,0,40,18,40,40v13C2203,488,2185,506,2163,506z"
	/>
<path class="st2" d="M1466,626h-253c-22,0-40-18-40-40v-13c0-22,18-40,40-40h253c22,0,40,18,40,40v13C1506,608,1488,626,1466,626z"
	/>
<g>
	<g>
		<path class="st3" d="M123.41,967.07c0-0.34,0.01-0.67,0.02-1"/>
		<path class="st4" d="M123.62,964.08c10.83-75.77,440.33,21.62,446.04-76.83"/>
		<path class="st3" d="M569.71,886.25c0.01-0.33,0.01-0.66,0.01-1"/>
	</g>
</g>
<g>
	<line class="st5" x1="569" y1="886.5" x2="2762" y2="886.5"/>
</g>
<g>
	<g>
		<path class="st3" d="M569,892.48c0,0.33,0,0.67,0,1"/>
		<path class="st6" d="M568.98,895.48C565.95,1183.94,124.6,818.63,123,1185"/>
		<path class="st3" d="M123,1186c0,0.33,0,0.67,0,1"/>
	</g>
</g>
<g>
	<g>
		<path class="st3" d="M123,611c0,0.33,0,0.67,0,1"/>
		<path class="st7" d="M123.02,614.01c3.18,274.75,444.61-73.29,446.29,275.81"/>
		<path class="st3" d="M569.31,890.82c0,0.33,0,0.67,0,1"/>
	</g>
</g>
<g>
	<g>
		<path class="st3" d="M123,811c0,0.34,0.01,0.67,0.02,1"/>
		<path class="st4" d="M123.21,813.99c10.83,75.77,440.33-21.62,446.04,76.83"/>
		<path class="st3" d="M569.3,891.82c0.01,0.33,0.01,0.66,0.01,1"/>
	</g>
</g>
<a xlink:href="https://www.canva.com/colors/color-palettes/pensive-mood/" >
	<rect x="122.98" y="530.22" class="st8" width="125.02" height="71.43"/>
	<text transform="matrix(1 0 0 1 122.9839 549.4219)"><tspan x="0" y="0" class="st9 st10">AAU </tspan><tspan x="0" y="28.8" class="st11 st10">robotics</tspan></text>
</a>
<rect x="122.87" y="749.99" class="st8" width="223.13" height="71.43"/>
<text transform="matrix(1 0 0 1 122.8721 769.1909)"><tspan x="0" y="0" class="st9 st10">Aalto</tspan><tspan x="0" y="28.8" class="st11 st10">art</tspan></text>
<rect x="122.87" y="902.92" class="st8" width="260.13" height="71.43"/>
<text transform="matrix(1 0 0 1 122.8721 922.1205)"><tspan x="0" y="0" class="st9 st10">Trento</tspan><tspan x="0" y="28.8" class="st11 st10">artificial biology</tspan></text>
<rect x="122.82" y="1164.27" class="st8" width="260.13" height="71.43"/>
<text transform="matrix(1 0 0 1 122.8158 1183.4688)"><tspan x="0" y="0" class="st9 st10">ADES</tspan><tspan x="0" y="28.8" class="st11 st10">sustainability</tspan></text>
<circle cx="569.5" cy="886.5" r="22.5"/>
<circle cx="805.5" cy="886.5" r="22.5"/>
<rect x="710.5" y="774" class="st8" width="192.5" height="72.57"/>
<text transform="matrix(1 0 0 1 711.9341 788.3999)" class="st9 st12">E0 = Kick-off meeting</text>
<rect x="473.89" y="788.48" class="st8" width="192.5" height="72.57"/>
<text transform="matrix(1 0 0 1 500.8713 807.6833)"><tspan x="0" y="0" class="st9 st10">ABRA starts</tspan><tspan x="6.94" y="28.8" class="st9 st10">sept. 2020</tspan></text>
<rect x="123.32" y="48.93" class="st8" width="335.76" height="29.07"/>
<text transform="matrix(1 0 0 1 123.3236 68.1252)" class="st9 st10">IO = Intellectual Output</text>
<rect x="1200" y="553.95" class="st8" width="289" height="65.05"/>
<text transform="matrix(1 0 0 1 1200 568.3547)"><tspan x="0" y="0" class="st9 st12">IO2 = Course guide on transdis</tspan><tspan x="271.74" y="0" class="st9 st12">-</tspan><tspan x="0" y="21.6" class="st9 st12">ciplinary teaching and learning </tspan><tspan x="0" y="43.2" class="st9 st12">(vol.1)</tspan></text>
<rect x="1644.96" y="439.62" class="st8" width="422.04" height="47.38"/>
<text transform="matrix(1 0 0 1 1644.9591 454.0231)"><tspan x="0" y="0" class="st9 st12">IO4 = Special journal issue on transdisciplinari</tspan><tspan x="406.04" y="0" class="st9 st12">-</tspan><tspan x="0" y="21.6" class="st9 st12">ty in higher education </tspan></text>
<rect x="1505" y="310.96" class="st8" width="1256" height="21.75"/>
<text transform="matrix(1 0 0 1 1789.4749 325.3573)" class="st9 st12">IO5 = What transdisciplinary knowledge looks like (exhibition and symposium)</text>
<rect x="1476.61" y="219.66" class="st8" width="916.39" height="16.34"/>
<text transform="matrix(1 0 0 1 1476.6102 234.061)" class="st9 st12">IO6 = Approved joint master degree curricullum, Erasmus Mundus Joint Master Degree application</text>
<rect x="1192.31" y="769" class="st8" width="205.69" height="94"/>
<text transform="matrix(1 0 0 1 1192.3076 783.4)"><tspan x="0" y="0" class="st9 st12">E1 = theme: transdisci</tspan><tspan x="190.58" y="0" class="st9 st12">-</tspan><tspan x="0" y="21.6" class="st9 st12">plinarity and sustain</tspan><tspan x="179.78" y="21.6" class="st9 st12">-</tspan><tspan x="0" y="43.2" class="st9 st12">ability</tspan></text>
<rect x="123.32" y="98.53" class="st8" width="519.68" height="34.47"/>
<text transform="matrix(1 0 0 1 123.3236 117.7336)" class="st9 st10">E = Event (made up of activities)</text>
<rect x="1633.31" y="768.64" class="st8" width="301.69" height="84.36"/>
<text transform="matrix(1 0 0 1 1633.3076 783.0381)"><tspan x="0" y="0" class="st9 st12">E2 = The Future of holistic per</tspan><tspan x="261" y="0" class="st9 st12">-</tspan><tspan x="0" y="21.6" class="st9 st12">spectives and trans disciplinary </tspan><tspan x="0" y="43.2" class="st9 st12">knowledge in HE</tspan><tspan x="0" y="64.8" class="st9 st12">- Preparing for course guide vol. 1</tspan></text>
<rect x="123.32" y="147.12" class="st8" width="335.76" height="29.07"/>
<text transform="matrix(1 0 0 1 123.3236 166.3236)" class="st9 st10">C = Activities</text>
<rect x="2666.12" y="931.43" class="st8" width="192.5" height="72.57"/>
<text transform="matrix(1 0 0 1 2669.24 950.6259)"><tspan x="0" y="0" class="st9 st10">Hungary (ADES)</tspan><tspan x="40.06" y="28.8" class="st9 st10">jun. 2023</tspan></text>
<rect x="2122.39" y="767.33" class="st8" width="302.61" height="87.67"/>
<text transform="matrix(1 0 0 1 2122.3899 781.7321)"><tspan x="0" y="0" class="st9 st12">E3 = The Future of holistic per</tspan><tspan x="260.82" y="0" class="st9 st12">-</tspan><tspan x="0" y="21.6" class="st9 st12">spectives and transdisciplinary </tspan><tspan x="0" y="43.2" class="st9 st12">knowledge in HE</tspan><tspan x="0" y="64.8" class="st9 st12">- Preparing for Course Guide vol. 2</tspan></text>
<rect x="2612.39" y="771.33" class="st8" width="299.61" height="78.67"/>
<text transform="matrix(1 0 0 1 2612.3896 785.7321)"><tspan x="0" y="0" class="st9 st12">E4 = public exhibition and sympo</tspan><tspan x="291.38" y="0" class="st9 st12">-</tspan><tspan x="0" y="21.6" class="st9 st12">sium</tspan><tspan x="0" y="43.2" class="st9 st12">Preparing for Course Guide vol. 2</tspan></text>
<rect x="1048" y="1057.97" class="st8" width="495" height="18.03"/>
<text transform="matrix(1 0 0 1 1094.0471 1072.4209)"><tspan x="0" y="0" class="st9 st12">C1 = Intensive programmes for </tspan><tspan x="272.37" y="0" class="st13 st12">teaching staff</tspan></text>
<rect x="248.06" y="532.05" class="st8" width="213.94" height="61.95"/>
<text transform="matrix(1 0 0 1 248.058 551.2526)"><tspan x="0" y="0" class="st9 st10">HUM - KOM</tspan><tspan x="0" y="28.8" class="st9 st10">TECH - </tspan></text>
<rect x="1048" y="1088.9" class="st8" width="495" height="18.23"/>
<text transform="matrix(1 0 0 1 1060.8821 1103.3577)"><tspan x="0" y="0" class="st9 st12">C2 = Intensive program for higher education </tspan><tspan x="393.89" y="0" class="st13 st12">learners</tspan></text>
<rect x="1048" y="1119.72" class="st8" width="495" height="18.67"/>
<text transform="matrix(1 0 0 1 1110.301 1134.1707)"><tspan x="0" y="0" class="st9 st12">C3 = Short-term </tspan><tspan x="143.33" y="0" class="st13 st12">joint staff </tspan><tspan x="238.93" y="0" class="st9 st12">training events</tspan></text>
<rect x="1541" y="1269.53" class="st8" width="488" height="18"/>
<text transform="matrix(1 0 0 1 1581.9631 1283.9844)"><tspan x="0" y="0" class="st9 st12">C4 = Intensive programmes for</tspan><tspan x="271.06" y="0" class="st13 st12"> teaching staff</tspan></text>
<rect x="1541" y="1305.06" class="st8" width="488" height="18.23"/>
<text transform="matrix(1 0 0 1 1550.5173 1319.5156)"><tspan x="0" y="0" class="st9 st12">C5 = Intensive program for higher education </tspan><tspan x="393.62" y="0" class="st13 st12">learners</tspan></text>
<rect x="1541" y="1345.82" class="st8" width="488" height="18.67"/>
<text transform="matrix(1 0 0 1 1599.4768 1360.2766)"><tspan x="0" y="0" class="st9 st12">C6 = Short-term </tspan><tspan x="143.98" y="0" class="st13 st12">joint staff </tspan><tspan x="239.57" y="0" class="st9 st12">training events</tspan></text>
<rect x="2518.32" y="1246.19" class="st8" width="489.68" height="18"/>
<text transform="matrix(1 0 0 1 2561.0417 1260.6477)"><tspan x="0" y="0" class="st9 st12">C7 = Intensive programmes for</tspan><tspan x="269.22" y="0" class="st13 st12"> teaching staff</tspan></text>
<rect x="2518.32" y="1277.11" class="st8" width="489.68" height="18.23"/>
<text transform="matrix(1 0 0 1 2528.093 1291.5686)"><tspan x="0" y="0" class="st9 st12">C8 = Intensive program for higher education </tspan><tspan x="394.79" y="0" class="st13 st12">learners</tspan></text>
<rect x="2518.32" y="1307.93" class="st8" width="489.68" height="18.67"/>
<text transform="matrix(1 0 0 1 2577.7185 1322.3821)"><tspan x="0" y="0" class="st9 st12">C9 = Short-term </tspan><tspan x="143.82" y="0" class="st13 st12">joint staff </tspan><tspan x="239.41" y="0" class="st9 st12">training events</tspan></text>
<line class="st14" x1="806.5" y1="886" x2="806.5" y2="1389"/>
<line class="st14" x1="2762.5" y1="858" x2="2762.5" y2="1361"/>
<circle cx="2762.5" cy="886.5" r="22.5"/>
<line class="st14" x1="1295.5" y1="886" x2="1295.5" y2="1389"/>
<line class="st14" x1="1784.5" y1="886" x2="1784.5" y2="1389"/>
<line class="st14" x1="2273.5" y1="886" x2="2273.5" y2="1389"/>
<circle cx="1295.5" cy="885.5" r="22.5"/>
<circle cx="1784.5" cy="885.5" r="22.5"/>
<circle cx="2273.5" cy="885.5" r="22.5"/>
<rect x="1199.73" y="924.41" class="st8" width="192.5" height="72.57"/>
<text transform="matrix(1 0 0 1 1205.8274 943.6134)"><tspan x="0" y="0" class="st9 st10">Denmark (AAU)</tspan><tspan x="33.56" y="28.8" class="st9 st10">sept 2021</tspan></text>
<rect x="710.73" y="920.41" class="st8" width="192.5" height="72.57"/>
<text transform="matrix(1 0 0 1 721.4714 939.6134)"><tspan x="0" y="0" class="st9 st10">online (Trento)</tspan><tspan x="-3.95" y="28.8" class="st9 st10">16, 17 nov 2020</tspan></text>
<rect x="1647.38" y="923.9" class="st8" width="273.62" height="72.57"/>
<text transform="matrix(1 0 0 1 1652.7085 943.1019)"><tspan x="0" y="0" class="st9 st10">Finland (Aalto, Trento)</tspan><tspan x="74.21" y="28.8" class="st9 st10">june 2022</tspan></text>
<rect x="2177.45" y="923.18" class="st8" width="192.5" height="72.57"/>
<text transform="matrix(1 0 0 1 2198.0073 942.3813)"><tspan x="0" y="0" class="st9 st10">Italy (Trento)</tspan><tspan x="17.53" y="28.8" class="st9 st10">sept 2022</tspan></text>
<rect x="1048" y="1027.09" class="st8" width="495" height="18.03"/>
<text transform="matrix(1 0 0 1 1124.4126 1041.4917)" class="st9 st12">M1 = Multiplier - Nordic summer school</text>
<rect x="1541" y="1214" class="st8" width="488" height="44"/>
<text transform="matrix(1 0 0 1 1545.3694 1228.3997)"><tspan x="0" y="0" class="st9 st12">M2 = Multiplier: The future of holistic perspectives and </tspan><tspan x="28.23" y="21.6" class="st9 st12">transdisciplinary knowledge in higher education</tspan></text>
<rect x="2030" y="1027" class="st8" width="489" height="41.21"/>
<text transform="matrix(1 0 0 1 2045.5068 1041.3999)"><tspan x="0" y="0" class="st9 st12">M3 = Futures of holistic perspectives and transdisci</tspan><tspan x="450.66" y="0" class="st9 st12">-</tspan><tspan x="62.59" y="21.6" class="st9 st12">plinary knowledge inhigher edcuation </tspan></text>
<rect x="2518.32" y="1214.61" class="st8" width="489.68" height="20.39"/>
<text transform="matrix(1 0 0 1 2543.3386 1229.0142)" class="st9 st12">M4 = What transdisciplinary knowledge looks like</text>
<rect x="694.92" y="1026.58" class="st8" width="223.08" height="18.42"/>
<text transform="matrix(1 0 0 1 702.6809 1040.9769)" class="st9 st12">TM0 = Kick-off meeting</text>
<rect x="123.32" y="199.15" class="st8" width="543.23" height="29.07"/>
<text transform="matrix(1 0 0 1 123.3231 218.3546)" class="st9 st10">TM = Transnational project meeting</text>
<rect x="1048" y="1156.53" class="st8" width="495" height="53.47"/>
<text transform="matrix(1 0 0 1 1054.6814 1170.9302)"><tspan x="0" y="0" class="st9 st12">TM1 = Transdisciplinarity and Sustainability: Materials, </tspan><tspan x="144.09" y="21.6" class="st9 st12">Practices &amp; Pedagogy</tspan></text>
<rect x="1541" y="1378.74" class="st8" width="489" height="40.26"/>
<text transform="matrix(1 0 0 1 1543.5026 1393.1443)"><tspan x="0" y="0" class="st9 st12">TM2 = Transdisciplinarity and Sustainability: Materials, </tspan><tspan x="145.27" y="21.6" class="st9 st12">Practices &amp; Pedagogy</tspan></text>
<rect x="2029" y="1080" class="st8" width="489" height="29"/>
<text transform="matrix(1 0 0 1 2110.647 1094.4011)" class="st9 st12">TM3 = Assessing the Joint Curriculum</text>
<rect x="2518" y="1336.49" class="st8" width="490" height="76.51"/>
<text transform="matrix(1 0 0 1 2520.4438 1350.891)"><tspan x="0" y="0" class="st9 st12">TM4 = Project Summary and Presentation and Finaliza</tspan><tspan x="477.78" y="0" class="st9 st12">-</tspan><tspan x="-0.36" y="21.6" class="st9 st12">tion of Transdiscplinary (MA/MSc) Join Masters Degree </tspan><tspan x="161.3" y="43.2" class="st9 st12">&amp; Curriculum ADES</tspan></text>
<line class="st14" x1="1969" y1="1214" x2="2879" y2="1214"/>
<path class="st2" d="M1256,760H845c-22,0-40-18-40-40v-13c0-22,18-40,40-40h411c22,0,40,18,40,40v13C1296,742,1278,760,1256,760z"/>
<rect x="833.49" y="697.16" class="st8" width="439.51" height="36.84"/>
<text transform="matrix(1 0 0 1 833.4948 711.559)"><tspan x="0" y="0" class="st9 st12">IO1 = ABRA Hub (platform for communcation, </tspan><tspan x="0" y="21.6" class="st9 st12">website)</tspan></text>
<line class="st15" x1="1173" y1="887" x2="1173" y2="460"/>
<line class="st15" x1="1505.5" y1="887" x2="1505.5" y2="508.5"/>
<rect x="1173.5" y="504.69" class="st8" width="205.69" height="20.9"/>
<text transform="matrix(1 0 0 1 1173.4973 519.0897)" class="st9 st12">jun. ‘21</text>
<rect x="1470.62" y="487.46" class="st8" width="67.38" height="20.9"/>
<text transform="matrix(1 0 0 1 1470.623 501.8606)" class="st9 st12">jan. ‘22</text>
<path class="st2" d="M1744,626h-198c-22,0-40-18-40-40v-13c0-22,18-40,40-40h198c22,0,40,18,40,40v13C1784,608,1766,626,1744,626z"
	/>
<rect x="1524.96" y="553.51" class="st8" width="244.04" height="72.49"/>
<text transform="matrix(1 0 0 1 1524.9602 567.9077)"><tspan x="0" y="0" class="st9 st12">IO3 = Course guide on </tspan><tspan x="0" y="21.6" class="st9 st12">transdisciplinary teaching </tspan><tspan x="0" y="43.2" class="st9 st12">and learning (vol.2)</tspan></text>
<line class="st15" x1="1542.5" y1="887" x2="1542.5" y2="460"/>
<rect x="1508.18" y="449.11" class="st8" width="67.82" height="20.9"/>
<text transform="matrix(1 0 0 1 1508.1807 463.5115)" class="st9 st12">feb. ‘22</text>
<line x1="570" y1="885" x2="570" y2="1715"/>
<line class="st16" x1="569" y1="1668" x2="3189.5" y2="1668"/>
</svg>
